<svg xmlns="http://www.w3.org/2000/svg" version="1.1" xmlns:xlink="http://www.w3.org/1999/xlink" width="1000" height="1000"><style>
    #light-icon {
      display: inline;
    }
    #dark-icon {
      display: none;
    }

    @media (prefers-color-scheme: dark) {
      #light-icon {
        display: none;
      }
      #dark-icon {
        display: inline;
      }
    }
  </style><g id="light-icon"><svg xmlns="http://www.w3.org/2000/svg" version="1.1" xmlns:xlink="http://www.w3.org/1999/xlink" width="1000" height="1000"><g><g transform="matrix(11.363636363636363,0,0,11.363636363636363,22.727272727272748,0)" style="filter: contrast(1) brightness(1)"><svg xmlns="http://www.w3.org/2000/svg" version="1.1" xmlns:xlink="http://www.w3.org/1999/xlink" width="84" height="88"><svg width="84" height="88" viewBox="0 0 84 88" fill="none" xmlns="http://www.w3.org/2000/svg">
<path d="M22.4999 79.8008C22.3928 79.7392 22.2857 79.6775 22.1387 79.5706C21.5813 79.2666 21.0713 78.9914 20.5453 78.7516C17.0318 77.1493 13.5146 75.5554 9.99934 73.957C8.69699 73.3648 7.40131 72.7776 6.25982 71.8764C2.7104 69.074 0.783823 65.4039 0.616756 60.921C0.472234 57.0432 0.570828 53.1557 0.587943 49.2726C0.594377 47.8123 1.75462 46.6768 3.23153 46.6019C4.63159 46.5309 5.85418 47.5532 6.02712 48.9883C6.09029 49.5124 6.0467 50.0496 6.05061 50.5808C6.06383 52.3785 6.07825 54.1762 6.08888 55.9739C6.09782 57.487 6.01589 59.0065 6.12612 60.5121C6.36758 63.8099 7.88795 66.4014 10.8051 68.0124C12.4471 68.9191 14.2104 69.6072 15.9229 70.3855C19.7885 72.1422 23.6576 73.8911 27.5232 75.6479C31.3127 77.3701 35.0926 79.1139 38.8907 80.817C40.7767 81.6626 42.7335 81.7973 44.674 81.0256C46.0957 80.4603 47.4755 79.7889 48.8698 79.1555C52.523 77.4961 56.1746 75.8334 59.8254 74.1687C63.9152 72.304 67.996 70.4193 72.0958 68.5769C73.778 67.8209 75.1891 66.7702 76.2327 65.2383C77.4216 63.4933 77.8612 61.5383 77.863 59.4627C77.868 53.4795 77.8665 47.4964 77.8662 41.5132C77.8657 30.1969 77.8636 18.8805 77.8641 7.56415C77.8642 6.15747 77.905 6.40646 76.7256 6.40604C58.2094 6.39954 39.6932 6.40061 21.177 6.40088C16.3605 6.40096 11.5439 6.40896 6.72743 6.39859C6.25776 6.39758 6.08494 6.5406 6.09265 7.02602C6.11537 8.45737 6.09245 9.88939 6.09188 11.3212C6.09091 13.7362 6.09413 16.1513 6.09424 18.5663C6.09439 22.3293 6.09565 26.0923 6.09111 29.8554C6.09014 30.6545 6.06377 31.4535 6.05356 32.2527C6.04316 33.0674 6.09578 33.8875 6.01991 34.6958C5.81186 36.9121 3.32389 37.6002 1.85866 36.7074C0.882735 36.1127 0.559899 35.1813 0.56371 34.0648C0.581066 28.9817 0.572032 23.8984 0.57337 18.8152C0.574667 13.8821 0.578345 8.94886 0.577635 4.01567C0.577519 3.20879 0.760344 2.47054 1.28672 1.83362C1.95783 1.02153 2.82899 0.762939 3.8561 0.764111C15.1058 0.776953 26.3555 0.773254 37.6053 0.773498C51.7882 0.773828 65.9712 0.772802 80.1542 0.774706C82.0109 0.774951 83.1778 1.80936 83.3385 3.64755C83.4106 4.47349 83.388 5.30886 83.3865 6.13991C83.3772 11.0878 83.3553 16.0357 83.3506 20.9837C83.3484 23.3648 83.3823 25.746 83.3859 28.1272C83.3922 32.1756 83.3872 36.2241 83.3873 40.2725C83.3874 46.8056 83.4039 53.3389 83.3729 59.8719C83.3674 61.0305 83.2737 62.2111 83.034 63.342C82.1927 67.3106 80.0517 70.4419 76.6068 72.589C75.2734 73.4201 73.7919 74.0197 72.3585 74.6828C69.0493 76.2136 65.7299 77.7223 62.4116 79.2333C57.5018 81.4691 52.5918 83.7043 47.6773 85.9297C44.1804 87.5131 40.6061 87.7172 37.0636 86.1989C32.9948 84.455 28.992 82.5577 24.9522 80.7455C24.1541 80.3875 23.3183 80.1135 22.4999 79.8008Z" fill="#007AFF"></path>
<path d="M37.8248 42.5242C38.9929 38.7672 40.1495 35.0486 41.307 31.3303C41.9896 29.1373 42.6778 26.9461 43.3516 24.7504C43.4442 24.4484 43.5872 24.3312 43.9135 24.3353C46.0112 24.3616 48.1092 24.367 50.2071 24.3815C50.3529 24.3825 50.4986 24.4007 50.7311 24.417C50.5475 25.0324 50.3854 25.5998 50.2092 26.1628C48.5885 31.3411 46.9623 36.5177 45.3438 41.6968C43.4817 47.6551 41.6259 53.6154 39.7669 59.5747C39.3903 60.7822 39.0034 61.9866 38.6399 63.198C38.5355 63.5459 38.3876 63.706 37.9849 63.7018C35.9359 63.6803 33.8865 63.6946 31.8372 63.6963C31.6745 63.6965 31.5117 63.6964 31.2334 63.6964C33.4452 56.5929 35.6295 49.5778 37.8248 42.5242Z" fill="#FFC700"></path>
<path d="M13.5383 49.1552C12.5504 48.4437 11.5498 47.8039 10.6431 47.0508C8.69005 45.4286 8.86497 41.7668 10.9415 40.2613C13.5698 38.3556 16.2129 36.4703 18.8482 34.574C20.7923 33.1751 22.7209 31.7541 24.6812 30.3783C26.0797 29.3968 28.0001 29.6786 28.8944 30.9387C29.9358 32.4058 29.6613 34.3987 28.2279 35.4303C24.6196 38.0273 20.9947 40.6013 17.3782 43.187C17.1389 43.3582 16.915 43.5508 16.6249 43.7801C17.5914 44.4872 18.4961 45.1547 19.4067 45.814C22.3865 47.9714 25.3815 50.1082 28.3438 52.2895C29.6555 53.2553 29.8944 55.222 28.9442 56.5513C28.0282 57.8326 26.1885 58.1955 24.8479 57.2668C22.481 55.6271 20.1517 53.933 17.8121 52.2542C16.3922 51.2353 14.9825 50.2022 13.5383 49.1552Z" fill="#FFC700"></path>
<path d="M65.1349 43.9429C65.4263 43.6222 65.0896 43.5603 64.9555 43.4639C63.4693 42.3955 61.9721 41.3424 60.4822 40.2792C58.1662 38.6264 55.844 36.9819 53.5432 35.3082C52.336 34.4301 52.0616 32.4485 52.9173 31.1497C53.8042 29.8036 55.5833 29.3119 56.9067 30.1747C58.5634 31.2547 60.1525 32.4393 61.7604 33.5931C64.8426 35.8049 67.9305 38.0091 70.9913 40.2503C73.2724 41.9206 73.2493 45.6248 70.9545 47.302C68.4824 49.1088 65.9794 50.8731 63.4933 52.6608C61.4397 54.1375 59.3921 55.6227 57.3398 57.1014C55.8605 58.1671 53.9585 57.9409 52.9737 56.5869C51.9877 55.2312 52.3144 53.203 53.7303 52.1743C56.4365 50.2082 59.164 48.2713 61.8791 46.3173C62.9599 45.5395 64.0313 44.7487 65.1349 43.9429Z" fill="#FFC700"></path>
</svg></svg></g></g></svg></g><g id="dark-icon"><svg xmlns="http://www.w3.org/2000/svg" version="1.1" xmlns:xlink="http://www.w3.org/1999/xlink" width="1000" height="1000"><g><g transform="matrix(11.363636363636363,0,0,11.363636363636363,22.727272727272748,0)" style="filter: contrast(1) brightness(1)"><svg xmlns="http://www.w3.org/2000/svg" version="1.1" xmlns:xlink="http://www.w3.org/1999/xlink" width="84" height="88"><svg width="84" height="88" viewBox="0 0 84 88" fill="none" xmlns="http://www.w3.org/2000/svg">
<path d="M22.4999 79.8008C22.3928 79.7392 22.2857 79.6775 22.1387 79.5706C21.5813 79.2666 21.0713 78.9914 20.5453 78.7516C17.0318 77.1493 13.5146 75.5554 9.99935 73.957C8.697 73.3648 7.40131 72.7776 6.25983 71.8764C2.71041 69.074 0.783828 65.4039 0.616761 60.921C0.472239 57.0432 0.570833 53.1557 0.587948 49.2726C0.594382 47.8123 1.75462 46.6768 3.23154 46.6019C4.63159 46.5309 5.85419 47.5532 6.02713 48.9882C6.09029 49.5124 6.04671 50.0496 6.05062 50.5808C6.06384 52.3785 6.07826 54.1762 6.08888 55.9739C6.09783 57.487 6.01589 59.0065 6.12613 60.5121C6.36758 63.8099 7.88795 66.4014 10.8051 68.0123C12.4472 68.9191 14.2104 69.6072 15.9229 70.3855C19.7885 72.1421 23.6576 73.8911 27.5232 75.6479C31.3127 77.3701 35.0926 79.1139 38.8907 80.817C40.7767 81.6626 42.7335 81.7973 44.674 81.0256C46.0957 80.4603 47.4755 79.7889 48.8698 79.1555C52.523 77.4961 56.1746 75.8334 59.8254 74.1687C63.9152 72.304 67.996 70.4193 72.0958 68.5769C73.778 67.8209 75.1891 66.7702 76.2327 65.2383C77.4216 63.4933 77.8612 61.5383 77.863 59.4627C77.868 53.4795 77.8665 47.4964 77.8663 41.5132C77.8657 30.1969 77.8636 18.8805 77.8641 7.56415C77.8642 6.15747 77.905 6.40646 76.7256 6.40604C58.2094 6.39954 39.6932 6.40061 21.177 6.40088C16.3605 6.40096 11.5439 6.40896 6.72743 6.39859C6.25776 6.39758 6.08494 6.5406 6.09265 7.02602C6.11538 8.45737 6.09246 9.88939 6.09188 11.3212C6.09091 13.7362 6.09414 16.1513 6.09424 18.5663C6.0944 22.3293 6.09566 26.0923 6.09111 29.8554C6.09015 30.6545 6.06377 31.4535 6.05357 32.2527C6.04317 33.0674 6.09579 33.8875 6.01992 34.6958C5.81187 36.9121 3.32389 37.6002 1.85867 36.7074C0.88274 36.1127 0.559904 35.1813 0.563715 34.0648C0.581071 28.9817 0.572037 23.8984 0.573375 18.8152C0.574672 13.8821 0.57835 8.94886 0.57764 4.01567C0.577524 3.20879 0.760349 2.47054 1.28672 1.83362C1.95784 1.02153 2.82899 0.762939 3.85611 0.764111C15.1058 0.776953 26.3555 0.773254 37.6053 0.773498C51.7882 0.773828 65.9712 0.772802 80.1542 0.774706C82.0109 0.774951 83.1778 1.80936 83.3385 3.64755C83.4106 4.47349 83.388 5.30886 83.3865 6.13991C83.3772 11.0878 83.3554 16.0357 83.3507 20.9837C83.3484 23.3648 83.3823 25.746 83.3859 28.1272C83.3922 32.1756 83.3872 36.2241 83.3873 40.2725C83.3874 46.8056 83.4039 53.3389 83.3729 59.8719C83.3674 61.0305 83.2737 62.2111 83.034 63.342C82.1927 67.3106 80.0517 70.4419 76.6068 72.589C75.2734 73.4201 73.7919 74.0197 72.3585 74.6828C69.0493 76.2136 65.7299 77.7223 62.4116 79.2333C57.5018 81.4691 52.5918 83.7043 47.6773 85.9297C44.1804 87.5131 40.6061 87.7172 37.0636 86.1989C32.9948 84.455 28.992 82.5577 24.9522 80.7455C24.1541 80.3875 23.3183 80.1135 22.4999 79.8008Z" fill="#FFD433"></path>
<path d="M37.8248 42.5242C38.9929 38.7672 40.1496 35.0486 41.307 31.3303C41.9896 29.1373 42.6778 26.9461 43.3516 24.7504C43.4442 24.4484 43.5872 24.3312 43.9135 24.3353C46.0113 24.3616 48.1092 24.367 50.2071 24.3815C50.353 24.3825 50.4986 24.4007 50.7311 24.417C50.5475 25.0324 50.3854 25.5998 50.2092 26.1628C48.5885 31.3411 46.9623 36.5177 45.3438 41.6968C43.4817 47.6551 41.6259 53.6154 39.767 59.5747C39.3903 60.7822 39.0034 61.9866 38.6399 63.198C38.5355 63.5459 38.3876 63.706 37.9849 63.7018C35.9359 63.6803 33.8865 63.6946 31.8373 63.6963C31.6745 63.6965 31.5117 63.6964 31.2334 63.6964C33.4452 56.5929 35.6295 49.5778 37.8248 42.5242Z" fill="#3395FF"></path>
<path d="M13.5383 49.1552C12.5504 48.4437 11.5498 47.8039 10.6431 47.0508C8.69005 45.4286 8.86497 41.7668 10.9415 40.2613C13.5698 38.3556 16.2129 36.4703 18.8482 34.574C20.7923 33.1751 22.7209 31.7541 24.6812 30.3783C26.0797 29.3968 28.0001 29.6786 28.8944 30.9387C29.9358 32.4058 29.6613 34.3987 28.2279 35.4303C24.6196 38.0273 20.9947 40.6013 17.3782 43.187C17.1389 43.3582 16.915 43.5508 16.6249 43.7801C17.5914 44.4872 18.4961 45.1547 19.4067 45.814C22.3865 47.9714 25.3815 50.1082 28.3438 52.2895C29.6555 53.2553 29.8944 55.222 28.9442 56.5513C28.0282 57.8326 26.1885 58.1955 24.8479 57.2668C22.481 55.6271 20.1517 53.933 17.8121 52.2542C16.3922 51.2353 14.9825 50.2022 13.5383 49.1552Z" fill="#3395FF"></path>
<path d="M65.1349 43.9429C65.4263 43.6222 65.0896 43.5603 64.9555 43.4639C63.4693 42.3955 61.9721 41.3424 60.4822 40.2792C58.1662 38.6264 55.844 36.9819 53.5432 35.3082C52.336 34.4301 52.0616 32.4485 52.9173 31.1497C53.8042 29.8036 55.5833 29.3119 56.9067 30.1747C58.5634 31.2547 60.1525 32.4393 61.7604 33.5931C64.8427 35.8049 67.9306 38.0091 70.9913 40.2503C73.2724 41.9206 73.2493 45.6248 70.9545 47.302C68.4824 49.1088 65.9794 50.8731 63.4933 52.6608C61.4397 54.1375 59.3922 55.6227 57.3398 57.1014C55.8605 58.1671 53.9585 57.9409 52.9738 56.5869C51.9877 55.2312 52.3144 53.203 53.7303 52.1743C56.4365 50.2082 59.164 48.2713 61.8791 46.3173C62.9599 45.5395 64.0314 44.7487 65.1349 43.9429Z" fill="#3395FF"></path>
</svg></svg></g></g></svg></g></svg>