<svg width="100" height="100" viewBox="0 0 100 100" fill="none" xmlns="http://www.w3.org/2000/svg">
<path d="M30.4999 85.8008C30.3928 85.7392 30.2857 85.6775 30.1387 85.5706C29.5813 85.2666 29.0713 84.9914 28.5453 84.7516C25.0318 83.1493 21.5146 81.5554 17.9993 79.957C16.697 79.3648 15.4013 78.7776 14.2598 77.8764C10.7104 75.074 8.78383 71.4039 8.61676 66.921C8.47224 63.0432 8.57083 59.1557 8.58795 55.2726C8.59438 53.8123 9.75462 52.6768 11.2315 52.6019C12.6316 52.5309 13.8542 53.5532 14.0271 54.9883C14.0903 55.5124 14.0467 56.0496 14.0506 56.5808C14.0638 58.3785 14.0783 60.1762 14.0889 61.9739C14.0978 63.487 14.0159 65.0065 14.1261 66.5121C14.3676 69.8099 15.888 72.4014 18.8051 74.0124C20.4472 74.9191 22.2104 75.6072 23.9229 76.3855C27.7885 78.1422 31.6576 79.8911 35.5232 81.6479C39.3127 83.3701 43.0926 85.1139 46.8907 86.817C48.7767 87.6626 50.7335 87.7973 52.674 87.0256C54.0957 86.4603 55.4755 85.7889 56.8698 85.1555C60.523 83.4961 64.1746 81.8334 67.8254 80.1687C71.9152 78.304 75.996 76.4193 80.0958 74.5769C81.778 73.8209 83.1891 72.7702 84.2327 71.2383C85.4216 69.4933 85.8612 67.5383 85.863 65.4627C85.868 59.4795 85.8665 53.4964 85.8662 47.5132C85.8657 36.1969 85.8636 24.8805 85.8641 13.5641C85.8642 12.1575 85.905 12.4065 84.7256 12.406C66.2094 12.3995 47.6932 12.4006 29.177 12.4009C24.3605 12.401 19.5439 12.409 14.7274 12.3986C14.2578 12.3976 14.0849 12.5406 14.0927 13.026C14.1154 14.4574 14.0925 15.8894 14.0919 17.3212C14.0909 19.7362 14.0941 22.1513 14.0942 24.5663C14.0944 28.3293 14.0957 32.0923 14.0911 35.8554C14.0901 36.6545 14.0638 37.4535 14.0536 38.2527C14.0432 39.0674 14.0958 39.8875 14.0199 40.6958C13.8119 42.9121 11.3239 43.6002 9.85867 42.7074C8.88274 42.1127 8.5599 41.1813 8.56372 40.0648C8.58107 34.9817 8.57204 29.8984 8.57338 24.8152C8.57467 19.8821 8.57835 14.9489 8.57764 10.0157C8.57752 9.20879 8.76035 8.47054 9.28672 7.83362C9.95784 7.02153 10.829 6.76294 11.8561 6.76411C23.1058 6.77695 34.3555 6.77325 45.6053 6.7735C59.7882 6.77383 73.9712 6.7728 88.1542 6.77471C90.0109 6.77495 91.1778 7.80936 91.3385 9.64755C91.4106 10.4735 91.388 11.3089 91.3865 12.1399C91.3772 17.0878 91.3554 22.0357 91.3507 26.9837C91.3484 29.3648 91.3823 31.746 91.3859 34.1272C91.3922 38.1756 91.3872 42.2241 91.3873 46.2725C91.3874 52.8056 91.4039 59.3389 91.3729 65.8719C91.3675 67.0305 91.2737 68.2111 91.034 69.342C90.1927 73.3106 88.0517 76.4419 84.6068 78.589C83.2734 79.4201 81.7919 80.0197 80.3585 80.6828C77.0493 82.2136 73.7299 83.7223 70.4116 85.2333C65.5018 87.4691 60.5918 89.7043 55.6773 91.9297C52.1804 93.5131 48.6061 93.7172 45.0636 92.1989C40.9948 90.455 36.992 88.5577 32.9522 86.7455C32.1541 86.3875 31.3183 86.1135 30.4999 85.8008Z" fill="white"/>
<path d="M45.8248 48.5242C46.9929 44.7672 48.1496 41.0486 49.307 37.3303C49.9896 35.1373 50.6778 32.9461 51.3516 30.7504C51.4442 30.4484 51.5872 30.3312 51.9135 30.3353C54.0113 30.3616 56.1093 30.367 58.2071 30.3815C58.353 30.3825 58.4986 30.4007 58.7311 30.417C58.5475 31.0324 58.3854 31.5998 58.2092 32.1628C56.5885 37.3411 54.9623 42.5177 53.3438 47.6968C51.4817 53.6551 49.6259 59.6154 47.767 65.5747C47.3903 66.7822 47.0034 67.9866 46.6399 69.198C46.5355 69.5459 46.3876 69.706 45.9849 69.7018C43.9359 69.6803 41.8865 69.6946 39.8373 69.6963C39.6745 69.6965 39.5117 69.6964 39.2334 69.6964C41.4452 62.5929 43.6295 55.5778 45.8248 48.5242Z" fill="white"/>
<path d="M21.5383 55.1552C20.5504 54.4437 19.5498 53.8039 18.6431 53.0508C16.69 51.4286 16.865 47.7668 18.9415 46.2613C21.5698 44.3556 24.2129 42.4703 26.8482 40.574C28.7923 39.1751 30.7209 37.7541 32.6812 36.3783C34.0797 35.3968 36.0001 35.6786 36.8944 36.9387C37.9358 38.4058 37.6613 40.3987 36.2279 41.4303C32.6196 44.0273 28.9947 46.6013 25.3782 49.187C25.1389 49.3582 24.915 49.5508 24.6248 49.7801C25.5914 50.4872 26.4961 51.1547 27.4067 51.814C30.3865 53.9714 33.3815 56.1082 36.3438 58.2895C37.6555 59.2553 37.8944 61.222 36.9442 62.5513C36.0282 63.8326 34.1885 64.1955 32.8479 63.2668C30.481 61.6271 28.1517 59.933 25.8121 58.2542C24.3922 57.2353 22.9825 56.2022 21.5383 55.1552Z" fill="white"/>
<path d="M73.1349 49.9429C73.4263 49.6222 73.0896 49.5603 72.9555 49.4639C71.4693 48.3955 69.9721 47.3424 68.4822 46.2792C66.1662 44.6264 63.844 42.9819 61.5432 41.3082C60.336 40.4301 60.0616 38.4485 60.9173 37.1497C61.8042 35.8036 63.5833 35.3119 64.9067 36.1747C66.5634 37.2547 68.1525 38.4393 69.7604 39.5931C72.8426 41.8049 75.9305 44.0091 78.9913 46.2503C81.2724 47.9206 81.2493 51.6248 78.9545 53.302C76.4824 55.1088 73.9794 56.8731 71.4933 58.6608C69.4397 60.1375 67.3921 61.6227 65.3398 63.1014C63.8605 64.1671 61.9585 63.9409 60.9737 62.5869C59.9877 61.2312 60.3144 59.203 61.7303 58.1743C64.4365 56.2082 67.164 54.2713 69.8791 52.3173C70.9599 51.5395 72.0313 50.7487 73.1349 49.9429Z" fill="white"/>
</svg>
